<svg xmlns="http://www.w3.org/2000/svg" viewBox="0 0 48.84 48.84"><g id="Capa_2" data-name="Capa 2"><g id="Layer_1" data-name="Layer 1"><polygon points="29.3 3.26 26.05 3.26 26.05 6.51 29.3 6.51 32.56 6.51 32.56 3.26 29.3 3.26"/><polygon points="48.84 3.26 45.58 3.26 45.58 0 42.33 0 42.33 3.26 39.07 3.26 39.07 0 35.81 0 32.56 0 32.56 3.26 35.81 3.26 35.81 6.51 39.07 6.51 39.07 9.77 35.81 9.77 35.81 6.51 32.56 6.51 32.56 9.77 32.56 13.02 35.81 13.02 39.07 13.02 42.33 13.02 42.33 9.77 42.33 6.51 45.58 6.51 45.58 9.77 48.84 9.77 48.84 3.26"/><rect x="26.05" y="9.77" width="3.26" height="3.26"/><polygon points="45.58 13.02 42.33 13.02 42.33 16.28 42.33 19.54 45.58 19.54 45.58 16.28 48.84 16.28 48.84 13.02 45.58 13.02"/><polygon points="42.33 26.05 42.33 22.79 39.07 22.79 39.07 19.54 35.81 19.54 35.81 16.28 32.56 16.28 29.3 16.28 26.05 16.28 26.05 19.54 29.3 19.54 32.56 19.54 32.56 22.79 35.81 22.79 35.81 26.05 39.07 26.05 42.33 26.05"/><polygon points="19.54 26.05 16.28 26.05 13.02 26.05 13.02 29.3 13.02 32.56 16.28 32.56 19.54 32.56 19.54 29.3 19.54 26.05"/><rect x="45.58" y="39.07" width="3.26" height="3.26"/><polygon points="48.84 22.79 45.58 22.79 45.58 26.05 42.33 26.05 42.33 29.3 45.58 29.3 45.58 32.56 45.58 35.81 48.84 35.81 48.84 26.05 48.84 22.79"/><polygon points="3.26 32.56 6.51 32.56 9.77 32.56 9.77 29.3 6.51 29.3 6.51 26.05 3.26 26.05 0 26.05 0 29.3 3.26 29.3 3.26 32.56"/><polygon points="35.81 29.3 35.81 32.56 39.07 32.56 42.33 32.56 42.33 29.3 39.07 29.3 35.81 29.3"/><polygon points="42.33 39.07 42.33 35.81 39.07 35.81 35.81 35.81 35.81 39.07 35.81 42.33 39.07 42.33 39.07 39.07 42.33 39.07"/><polygon points="3.26 48.84 3.26 45.58 6.51 45.58 6.51 42.33 3.26 42.33 3.26 39.07 6.51 39.07 6.51 42.33 9.77 42.33 13.02 42.33 16.28 42.33 19.54 42.33 19.54 39.07 16.28 39.07 16.28 35.81 13.02 35.81 9.77 35.81 6.51 35.81 3.26 35.81 0 35.81 0 39.07 0 42.33 0 45.58 0 48.84 3.26 48.84"/><polygon points="45.58 48.84 45.58 45.58 45.58 42.33 42.33 42.33 39.07 42.33 39.07 45.58 35.81 45.58 35.81 48.84 45.58 48.84"/><polygon points="19.54 48.84 22.79 48.84 26.05 48.84 26.05 45.58 26.05 42.33 29.3 42.33 29.3 45.58 32.56 45.58 35.81 45.58 35.81 42.33 32.56 42.33 32.56 39.07 32.56 35.81 35.81 35.81 35.81 32.56 32.56 32.56 32.56 29.3 35.81 29.3 35.81 26.05 32.56 26.05 29.3 26.05 29.3 29.3 29.3 32.56 29.3 35.81 29.3 39.07 26.05 39.07 26.05 35.81 26.05 32.56 26.05 29.3 26.05 26.05 22.79 26.05 22.79 29.3 22.79 32.56 19.54 32.56 19.54 35.81 19.54 39.07 22.79 39.07 22.79 42.33 19.54 42.33 19.54 45.58 16.28 45.58 13.02 45.58 13.02 48.84 19.54 48.84"/><path d="M22.86,0H0V22.86H22.86ZM20.57,20.57H2.29V2.29H20.57Z"/><rect x="6.48" y="6.48" width="9.9" height="9.9"/></g></g></svg>